# xmcd
#
# Track frame offsets: 
#        150
#        13845
#        36762
#        41570
#        61515
#        63045
#        80461
#        97674
#        113039
#        132758
#        141952
#        154067
#        156140
#        172338
#        178200
#        196106
#        197941
#        216674
#        221631
#        236612
#        252300
#
# Disc length: 3683 seconds
#
# Revision: 1
# Processed by: cddbd v1.5.2PL0 Copyright (c) Steve Scherf et al.
# Submitted via: ExactAudioCopy v0.99pb5
#
DISCID=2a0e6115
DTITLE=Lucinda Williams - LA [5 Lucinda Williams]
DYEAR=2007
DGENRE=Folk/Rock
TTITLE0=I Just Wanted to See You So Bad
TTITLE1=The Night's Too Long
TTITLE2="Independent people"
TTITLE3=Abandoned
TTITLE4="Somebody, a couple in Austin"
TTITLE5=Big Red Sun Blues
TTITLE6="This whole last few nights" \\ Like a Rose [take 1]
TTITLE7=Like a Rose
TTITLE8=Changed the Locks
TTITLE9="Well, this song I've been doing"
TTITLE10=Passionate Kisses
TTITLE11="I figure if this music thing"
TTITLE12=Am I Too Blue
TTITLE13="Wow, I'm so impressed"
TTITLE14=Crescent City
TTITLE15="I'd like to thank"
TTITLE16=Side of the Road
TTITLE17="Now, Greg, are you coming"
TTITLE18=Price to Pay
TTITLE19="Let me introduce the band"
TTITLE20=I Asked For Water (He Gave Me Gasoline)
EXTD=
EXTT0=
EXTT1=
EXTT2=
EXTT3=
EXTT4=
EXTT5=
EXTT6=
EXTT7=
EXTT8=
EXTT9=
EXTT10=
EXTT11=
EXTT12=
EXTT13=
EXTT14=
EXTT15=
EXTT16=
EXTT17=
EXTT18=
EXTT19=
EXTT20=
PLAYORDER=
